<?xml version="1.0" encoding="UTF-8" standalone="no"?>
<svg
   xmlns:dc="http://purl.org/dc/elements/1.1/"
   xmlns:cc="http://creativecommons.org/ns#"
   xmlns:rdf="http://www.w3.org/1999/02/22-rdf-syntax-ns#"
   xmlns:svg="http://www.w3.org/2000/svg"
   xmlns="http://www.w3.org/2000/svg"
   id="svg2148"
   version="1.1"
   viewBox="0 0 78.845832 58.208335"
   height="220"
   width="298">
  <defs
     id="defs2142" />
  <metadata
     id="metadata2145">
    <rdf:RDF>
      <cc:Work
         rdf:about="">
        <dc:format>image/svg+xml</dc:format>
        <dc:type
           rdf:resource="http://purl.org/dc/dcmitype/StillImage" />
        <dc:title></dc:title>
      </cc:Work>
    </rdf:RDF>
  </metadata>
  <g
     transform="translate(0,-238.79165)"
     id="layer1">
    <g
       transform="matrix(0.8538278,0,0,0.8538278,-269.07785,163.41097)"
       id="g6992-5-0-6">
      <g
         id="g5610-2-1-7-4-7"
         transform="matrix(1.1211967,0,0,1.1211967,304.09046,-79.375142)">
        <path
           id="path5568-0-3-6-7-4"
           d="m 61.565298,178.08626 h 6.271426 v -15.05813 l -7.065735,-7.06554 -4.434587,4.43459 5.228896,5.22891 v 12.45998 z"
           style="fill:#43c1ff;fill-opacity:1;stroke-width:0.1973391" />
        <path
           id="path5085-88-9-9-9-1-5"
           d="M 67.853295,181.23008 H 45.977857 l -5.229088,-5.22869 2.217503,-2.21729 4.318762,4.31875 h 8.885795 l -8.753382,-8.76995 2.233882,-2.23386 8.753365,8.75356 v -8.88619 l -4.302173,-4.30219 2.200718,-2.20093 -10.871405,-10.92114 H 23.589366 l 6.254854,6.25488 v 0.0175 h 12.973052 l 4.58364,4.58359 -6.701647,6.70164 -4.583602,-4.58361 v -3.55761 H 29.84422 v 6.15559 l 10.855027,10.85504 -4.418223,4.41802 7.065719,7.06572 h 30.761426 z"
           style="fill:#007dbb;fill-opacity:1;stroke-width:0.1973391" />
      </g>
      <g
         id="g5626-4-7-8-3-0"
         transform="matrix(1.1211967,0,0,1.1211967,299.04877,-79.375142)">
        <path
           id="path5604-2-8-0-2-5"
           d="m 14.354531,195.58526 h 1.182542 v 4.12411 c 0,0.86501 0.52958,1.44463 1.590166,1.73884 0.246458,0.0455 0.44971,0.0677 0.610602,0.0677 h 0.12451 c 0.691616,0 1.276916,-0.2132 1.754474,-0.63959 0.259819,-0.30075 0.398543,-0.53726 0.417302,-0.71066 0.04891,-0.141 0.0722,-0.38205 0.0722,-0.72061 v -3.85974 h 1.182816 v 4.0374 c 0,1.40029 -0.714065,2.36082 -2.143347,2.88273 -0.465061,0.13872 -0.907084,0.20751 -1.326657,0.20751 -1.028468,0 -1.900024,-0.32094 -2.614097,-0.96167 -0.567388,-0.57961 -0.850517,-1.22802 -0.850517,-1.94635 z"
           style="fill:#007dbb;fill-opacity:1;fill-rule:nonzero;stroke:none;stroke-width:0.28426406" />
        <path
           id="path5602-5-2-0-8-9"
           d="m 22.250535,194.95107 c 0.17567,0.16004 1.601262,1.51257 4.276179,4.05645 0.842847,0.80731 1.323821,1.26043 1.442643,1.3602 v -4.77706 h 1.17259 v 7.52987 c -0.100062,-0.0802 -0.976163,-0.91049 -2.629439,-2.49413 -1.864488,-1.77096 -2.892673,-2.74485 -3.084838,-2.92138 v 4.77706 h -1.177135 z"
           style="fill:#007dbb;fill-opacity:1;fill-rule:nonzero;stroke:none;stroke-width:0.28426406" />
        <path
           id="path5600-2-0-4-7-3"
           d="m 30.106742,195.59066 h 1.187086 v 6.88573 h -1.187086 z"
           style="fill:#007dbb;fill-opacity:1;fill-rule:nonzero;stroke:none;stroke-width:0.28426406" />
        <path
           id="path5598-9-0-8-8-5"
           d="m 32.255488,195.58066 h 1.15355 v 4.39273 c 0.143269,-0.13189 1.264684,-1.22233 3.363407,-3.27216 0.326618,-0.31781 0.698441,-0.67967 1.114888,-1.08731 l 0.04351,-0.0332 h 1.643332 c -4.478295,4.37056 -6.91785,6.747 -7.318665,7.13218 z"
           style="fill:#007dbb;fill-opacity:1;fill-rule:nonzero;stroke:none;stroke-width:0.28426406" />
        <path
           id="path5596-7-9-7-3-8"
           d="m 40.199251,195.59066 h 6.304976 v 1.17714 h -5.103393 c -0.01676,0 -0.02442,0.008 -0.02442,0.0245 v 4.4837 c 0,0.0156 0.0081,0.0233 0.02442,0.0233 h 5.103393 v 1.17714 h -6.304976 v -6.88573"
           style="fill:#007dbb;fill-opacity:1;fill-rule:nonzero;stroke:none;stroke-width:0.28426406" />
        <path
           id="path5594-1-5-7-1-7"
           d="m 41.745929,198.16131 h 4.234117 v 1.19163 h -4.234117 z"
           style="fill:#007dbb;fill-opacity:1;fill-rule:nonzero;stroke:none;stroke-width:0.28426406" />
        <path
           d="m 48.54606,196.76349 v 3.16699 h 2.614097 c 0.723734,0 1.208117,-0.33657 1.451167,-1.00943 0.0577,-0.18875 0.0867,-0.35533 0.0867,-0.49973 v -0.14867 c 0,-0.52532 -0.222301,-0.95058 -0.667458,-1.2735 -0.244178,-0.15777 -0.54294,-0.23566 -0.899413,-0.23566 z m -1.176819,-1.17818 h 3.858604 c 1.031594,0 1.812185,0.47187 2.340628,1.41364 0.210923,0.42839 0.316385,0.88605 0.316385,1.36902 0,0.69502 -0.225137,1.31813 -0.677112,1.86989 l -0.02901,0.009 c 0.140997,0.19899 0.210923,0.42213 0.210923,0.66859 v 1.56118 h -1.176853 v -1.50802 c 0,-0.0199 -0.0099,-0.0287 -0.02901,-0.0287 -0.307577,0.112 -0.607475,0.16771 -0.898276,0.16771 h -2.71045 c -0.01902,0.003 -0.02901,0.0134 -0.02901,0.0287 v 1.34031 h -1.176854 v -6.89113"
           style="fill:#007dbb;fill-opacity:1;fill-rule:nonzero;stroke:none;stroke-width:0.28426406"
           id="path5590-0-8-5-9-5" />
        <path
           id="path5588-4-1-8-7-0"
           d="m 55.85591,195.58095 h 4.761425 v 1.17714 H 55.92243 c -0.188748,0 -0.321784,0.0967 -0.398535,0.28853 -0.01878,0.0901 -0.02869,0.16004 -0.02869,0.21234 0,0.32975 0.174251,0.49405 0.523899,0.49405 h 3.008079 c 0.749608,0 1.363619,0.34766 1.840041,1.04268 0.231108,0.41645 0.346521,0.85933 0.346521,1.32695 0,0.79395 -0.304451,1.43667 -0.912773,1.92646 -0.382048,0.2854 -0.857342,0.42753 -1.428146,0.42753 h -3.974009 v -1.19135 h 4.142862 c 0.362153,0 0.647273,-0.18875 0.85507,-0.56654 0.09324,-0.22428 0.13986,-0.42298 0.13986,-0.5961 0,-0.4642 -0.174259,-0.81499 -0.524189,-1.05263 -0.169699,-0.0932 -0.360727,-0.13901 -0.57165,-0.13901 h -2.97482 c -0.771775,0 -1.299373,-0.37864 -1.581359,-1.13478 -0.04432,-0.17539 -0.06648,-0.34197 -0.06648,-0.49974 v -0.12422 c 0,-0.37523 0.13758,-0.73397 0.413031,-1.07707 0.333161,-0.34311 0.708384,-0.51424 1.124831,-0.51424 z"
           style="fill:#007dbb;fill-opacity:1;fill-rule:nonzero;stroke:none;stroke-width:0.28426406" />
        <path
           d="m 64.933602,199.71387 h 1.589884 v -1.54782 c -0.01531,0 -0.546066,0.51622 -1.589884,1.54782 z m 2.719268,-4.23383 v 6.99659 h -1.129384 v -1.63338 h -2.753659 l -1.691091,1.63338 h -1.490112 c 3.896412,-3.86969 6.250401,-6.20151 7.064246,-6.99659"
           style="fill:#007dbb;fill-opacity:1;fill-rule:nonzero;stroke:none;stroke-width:0.28426406"
           id="path5584-4-1-0-0-2" />
        <path
           id="path5582-4-4-5-8-9"
           d="m 68.614538,195.5855 h 1.191349 v 5.71399 h 5.11789 v 1.17714 H 68.61454 Z"
           style="fill:#007dbb;fill-opacity:1;fill-rule:nonzero;stroke:none;stroke-width:0.28426406" />
        <path
           id="path5580-7-9-8-5-6"
           d="m 79.417704,198.52706 v 1.18681 h -3.82107 v -1.18681 z"
           style="fill:#43c1ff;fill-opacity:1;fill-rule:nonzero;stroke:none;stroke-width:0.28426406" />
        <path
           id="path5578-1-9-6-0-6"
           d="m 84.631112,195.15797 c 0.0253,0.0134 0.186475,0.37977 0.480693,1.10038 0.07107,0.14441 0.571932,1.31586 1.504607,3.51322 h 0.0145 l 1.618884,-4.18607 h 1.191632 c -1.838905,4.7293 -2.758494,7.10092 -2.758494,7.11769 h -0.02869 c -0.0088,-0.0355 -0.678538,-1.6078 -2.008894,-4.71935 h -0.01418 c 0,0.0134 -0.66973,1.59131 -2.008894,4.73384 h -0.0088 l -2.7639,-7.13218 h 1.191639 c 0,0.0134 0.540668,1.4091 1.62002,4.18607 h 0.0145 z"
           style="fill:#43c1ff;fill-opacity:1;fill-rule:nonzero;stroke:none;stroke-width:0.28426406" />
        <path
           id="path5108-4-3-0-5-6-8-7"
           d="m 91.412228,195.58095 h 4.762561 v 1.17714 h -4.696043 c -0.188748,0 -0.321784,0.0967 -0.398535,0.28853 -0.01878,0.0901 -0.02869,0.16004 -0.02869,0.21234 0,0.32975 0.174252,0.49405 0.523899,0.49405 h 3.008079 c 0.749608,0 1.363619,0.34766 1.841177,1.04268 0.229972,0.41645 0.345385,0.85933 0.345385,1.32695 0,0.79395 -0.304451,1.43667 -0.912773,1.92646 -0.380912,0.2854 -0.857342,0.42753 -1.42701,0.42753 h -3.974009 v -1.19135 h 4.141726 c 0.362153,0 0.647273,-0.18875 0.85507,-0.56654 0.09324,-0.22428 0.139853,-0.42298 0.139853,-0.5961 0,-0.4642 -0.174252,-0.81499 -0.524182,-1.05263 -0.169707,-0.0932 -0.359591,-0.13901 -0.57165,-0.13901 h -2.974824 c -0.771775,0 -1.299091,-0.37864 -1.581366,-1.13478 -0.04432,-0.17539 -0.06656,-0.34197 -0.06656,-0.49974 v -0.12422 c 0,-0.37523 0.137589,-0.73397 0.413039,-1.07707 0.333161,-0.34311 0.708385,-0.51424 1.124832,-0.51424 z"
           style="fill:#43c1ff;fill-opacity:1;fill-rule:nonzero;stroke:none;stroke-width:0.28426406" />
        <path
           d="m 16.62097,206.5661 h 0.004 l 1.009419,2.70932 h 0.0064 l 0.889461,-2.3918 h 0.361017 l -1.250478,3.35574 h -0.0064 c -0.0081,-0.0301 -0.344241,-0.93182 -1.009419,-2.70278 h -0.004 l -1.002883,2.69823 h -0.01338 c -0.01225,-0.0443 -0.428389,-1.1615 -1.250196,-3.35119 h 0.354192 c 0.0099,0 0.06454,0.14327 0.16658,0.42981 0.41872,1.1092 0.66177,1.76102 0.729424,1.95545 h 0.01338 l 1.002883,-2.69624 z m 3.071188,0.30189 h 3.082558 v 0.35874 h -2.722685 v 2.5416 h 2.722685 v 0.35988 h -3.082558 v -3.26022 m 0.598661,1.31159 h 2.227487 v 0.3596 h -2.227487 z m 3.839837,-1.31159 h 1.09044 c 0.335144,0 0.570514,0.0856 0.704968,0.25669 0.115413,0.12422 0.18762,0.26408 0.216612,0.42071 0.0088,0.0657 0.01531,0.12877 0.0199,0.19103 0,0.15094 -0.03666,0.29989 -0.108878,0.44515 -0.04432,0.0691 -0.06648,0.1066 -0.06648,0.11683 h 0.0081 c 0.188748,0.0731 0.330881,0.19984 0.424119,0.37864 0.0867,0.16431 0.129909,0.33401 0.129909,0.50969 0,0.35846 -0.142133,0.63618 -0.427245,0.83147 -0.126783,0.0734 -0.272042,0.11001 -0.43436,0.11001 H 23.69018 v -3.2534 c 0.197563,-0.005 0.345385,-0.007 0.440895,-0.007 m -0.08215,0.35874 v 1.02392 H 25.3102 c 0.239924,0 0.395417,-0.11569 0.466479,-0.34652 0.0088,-0.0168 0.01765,-0.0699 0.02756,-0.16117 0,-0.21519 -0.09097,-0.37068 -0.270906,-0.46847 -0.06648,-0.031 -0.166572,-0.0478 -0.297626,-0.0478 h -1.186796 m 0,1.38238 v 1.15923 h 1.638779 c 0.224283,0 0.37864,-0.11314 0.461934,-0.33856 0.01789,-0.0577 0.03126,-0.13645 0.04126,-0.23651 0,-0.2078 -0.0722,-0.37523 -0.216612,-0.50201 -0.08215,-0.0543 -0.171979,-0.0821 -0.273178,-0.0821 z m 3.753134,-1.73885 h 2.276101 v 0.35874 h -2.296278 c -0.204106,0 -0.333161,0.0677 -0.386319,0.20325 -0.01789,0.062 -0.02788,0.10859 -0.02788,0.14327 v 0.0543 c 0.03126,0.22997 0.140997,0.34538 0.332017,0.34538 h 1.516831 c 0.474158,0 0.79964,0.22542 0.975028,0.6774 0.04545,0.12081 0.06769,0.2564 0.06769,0.40394 0,0.33429 -0.118822,0.61202 -0.358455,0.83517 -0.17795,0.15776 -0.409904,0.2365 -0.697587,0.2365 h -2.018555 v -0.35985 h 2.031915 c 0.210931,0 0.375514,-0.0654 0.495189,-0.19528 0.125647,-0.14669 0.189038,-0.32094 0.189038,-0.52305 0,-0.32094 -0.13559,-0.54408 -0.406496,-0.67058 -0.08329,-0.0301 -0.176532,-0.0455 -0.277731,-0.0455 h -1.523366 c -0.29649,0 -0.508549,-0.14895 -0.636186,-0.44771 -0.03239,-0.0864 -0.04778,-0.16545 -0.04778,-0.23651 v -0.0955 c 0,-0.20638 0.08982,-0.38632 0.270898,-0.54067 0.108878,-0.0955 0.28313,-0.14327 0.521909,-0.14327 z m 4.976611,-0.11313 c 0.444303,0 0.843982,0.15748 1.198174,0.47415 0.362153,0.36414 0.54323,0.78371 0.54323,1.26014 0,0.59639 -0.257828,1.0839 -0.775192,1.4614 -0.307569,0.19103 -0.618555,0.28654 -0.931531,0.28654 h -0.06906 c -0.500588,0 -0.942619,-0.21547 -1.324675,-0.64642 -0.173116,-0.25214 -0.258682,-0.40735 -0.258682,-0.46306 -0.08215,-0.18534 -0.123084,-0.39968 -0.123084,-0.64613 0,-0.43635 0.160891,-0.8329 0.481828,-1.1905 0.364144,-0.35732 0.784,-0.53612 1.259004,-0.53612 m -1.380097,1.75447 c 0,0.41617 0.17994,0.77718 0.537541,1.08134 0.262944,0.18989 0.534987,0.28427 0.816118,0.28427 h 0.05431 c 0.337706,0 0.648401,-0.12877 0.931813,-0.38632 0.280858,-0.28312 0.42071,-0.61401 0.42071,-0.99265 0,-0.43208 -0.181077,-0.79736 -0.54294,-1.09612 -0.259818,-0.18989 -0.538685,-0.28426 -0.837447,-0.28426 -0.428381,0 -0.793661,0.18107 -1.095839,0.54294 -0.188748,0.25556 -0.284258,0.53868 -0.284258,0.8508 z m 5.599718,-1.75447 h 0.08215 c 0.477566,0 0.906229,0.20211 1.28715,0.60605 0.183067,0.2311 0.303024,0.4642 0.358454,0.70071 h -0.366416 c -0.01338,-0.0111 -0.03779,-0.0677 -0.07421,-0.17084 -0.05802,-0.11996 -0.153212,-0.24874 -0.286538,-0.3866 -0.278859,-0.25868 -0.594107,-0.38859 -0.946027,-0.38859 h -0.02675 c -0.471878,0 -0.859615,0.21774 -1.163776,0.65295 -0.135316,0.23537 -0.203252,0.4787 -0.203252,0.72743 0,0.4318 0.181077,0.79708 0.544085,1.0947 0.259818,0.19103 0.539813,0.28654 0.836303,0.28654 0.42071,0 0.785989,-0.1788 1.095839,-0.53868 0.09324,-0.13303 0.166572,-0.2709 0.21774,-0.41303 H 38.726 v 0.007 c -0.11086,0.38631 -0.31184,0.6973 -0.604059,0.93153 -0.336287,0.24873 -0.697305,0.37324 -1.082479,0.37324 -0.547493,0 -1.011699,-0.23111 -1.393747,-0.69418 -0.231963,-0.32406 -0.347376,-0.67512 -0.347376,-1.05376 0,-0.53726 0.219739,-0.99038 0.659497,-1.36021 0.328609,-0.24986 0.67513,-0.37409 1.04041,-0.37409 z m 2.596184,0.11086 h 0.359873 v 1.5825 h 0.0064 l 2.268712,-1.5825 h 0.631633 v 0.007 c -0.100917,0.0654 -0.617427,0.42298 -1.547822,1.07253 -0.04126,0.0321 -0.06567,0.0478 -0.07445,0.0478 v 0.007 l 1.452594,2.11863 v 0.008 h -0.427535 c -0.02442,-0.0245 -0.377504,-0.53641 -1.05945,-1.53446 -0.173116,-0.25328 -0.260955,-0.37977 -0.264363,-0.37977 l -0.985833,0.67711 v 1.23712 h -0.359873 z m 4.067529,0 h 3.082276 v 0.35874 h -2.722677 v 2.54161 h 2.722677 v 0.35987 h -3.082276 v -3.26022 m 0.598378,1.31159 h 2.227496 v 0.3596 H 44.26038 Z m 3.284674,-1.30704 h 2.951512 v 0.36641 h -1.291412 v 2.88926 H 48.83874 v -2.88926 h -1.293684 z m 4.499326,-0.002 h 2.275255 v 0.35874 h -2.29515 c -0.205524,0 -0.334297,0.0677 -0.386601,0.20325 -0.01878,0.062 -0.02756,0.10859 -0.02756,0.14327 v 0.0543 c 0.02981,0.22997 0.140997,0.34538 0.332025,0.34538 h 1.516549 c 0.47415,0 0.798496,0.22543 0.97502,0.67741 0.04545,0.12081 0.06769,0.2564 0.06769,0.40393 0,0.3343 -0.119668,0.61203 -0.358455,0.83517 -0.17766,0.15777 -0.409904,0.23651 -0.698433,0.23651 h -2.018845 v -0.35987 h 2.033059 c 0.210069,0 0.375514,-0.0654 0.495471,-0.19528 0.125357,-0.14669 0.188748,-0.32094 0.188748,-0.52305 0,-0.32094 -0.13559,-0.54408 -0.407632,-0.67058 -0.08329,-0.0301 -0.175396,-0.0455 -0.276587,-0.0455 H 51.93556 c -0.297626,0 -0.509685,-0.14895 -0.636185,-0.44771 -0.03215,-0.0864 -0.04778,-0.16545 -0.04778,-0.23651 v -0.0955 c 0,-0.20638 0.08982,-0.38632 0.269762,-0.54067 0.110014,-0.0955 0.284266,-0.14327 0.523045,-0.14327 z m 4.985708,-0.002 h 3.082558 v 0.35874 h -2.722677 v 2.5416 h 2.722677 v 0.35988 H 57.03009 V 206.868 m 0.598378,1.31159 h 2.227496 v 0.35959 h -2.227496 z m 3.399232,-1.30932 h 0.36528 v 2.57941 c 1.692219,-1.70558 2.546153,-2.56605 2.562639,-2.57941 h 0.510822 c -2.222944,2.24739 -3.368814,3.40463 -3.438741,3.47115 z m 4.239508,-0.002 h 3.082276 v 0.35875 h -2.722677 v 2.5416 h 2.722677 v 0.35988 h -3.082276 v -3.26023 m 0.598378,1.3116 h 2.227496 v 0.35959 h -2.227496 z m 3.839838,-1.30932 h 1.286867 c 0.475286,0 0.822943,0.1444 1.040409,0.43407 0.199836,0.24106 0.299898,0.52532 0.299898,0.85279 0,0.37438 -0.133325,0.69417 -0.399678,0.96167 0.09864,0.0844 0.147531,0.21547 0.147531,0.39313 v 0.61629 h -0.358454 v -0.64414 c 0,-0.0722 -0.04005,-0.12195 -0.121094,-0.14981 h -0.0064 c -0.144123,0.0676 -0.341968,0.10205 -0.594961,0.10205 h -1.375843 v 0.6919 h -0.358736 v -3.25113 c 0.196418,-0.005 0.343104,-0.007 0.440886,-0.007 m -0.08215,0.37324 v 1.81986 c 8.06e-4,0.01 0.0064,0.0145 0.01338,0.0145 h 1.369018 c 0.449702,0 0.745056,-0.17652 0.886052,-0.52759 0.05455,-0.13531 0.08215,-0.26863 0.08215,-0.40081 0,-0.29308 -0.11314,-0.53954 -0.338559,-0.73852 -0.145542,-0.12081 -0.357601,-0.18193 -0.636178,-0.18193 h -1.362483 c -0.0091,0.002 -0.01338,0.007 -0.01338,0.0145 z m 2.964591,-0.37551 h 0.454255 c 0.114276,0.13218 0.442031,0.53981 0.984971,1.22262 0.06648,0.0822 0.103189,0.12337 0.108878,0.12337 0,-0.0111 0.378639,-0.45994 1.134783,-1.34599 h 0.468461 l -1.432401,1.69791 v 1.56231 h -0.359599 v -1.56231 z m 6.058518,-0.30189 h 0.0048 l 1.009137,2.70932 h 0.0064 l 0.889469,-2.3918 h 0.360727 l -1.250196,3.35574 h -0.0064 c -0.0081,-0.0301 -0.343105,-0.93182 -1.009137,-2.70278 h -0.0048 l -1.002594,2.69823 h -0.01338 c -0.01225,-0.0443 -0.428663,-1.1615 -1.25047,-3.35119 h 0.355328 c 0.0091,0 0.06454,0.14327 0.165437,0.42981 0.418727,1.1092 0.661769,1.76101 0.729705,1.95545 h 0.01338 l 1.002594,-2.69624 z m 3.071478,0.30189 h 0.359591 v 2.08422 h 2.357405 v -2.08422 h 0.358737 v 3.26022 h -0.358737 v -0.80276 c 0,-0.009 -0.004,-0.0134 -0.01338,-0.0134 h -2.344045 v 0.81612 h -0.359591 z m 4.036264,0 h 3.082558 v 0.35874 H 86.11324 v 2.5416 h 2.723821 v 0.35988 h -3.082558 v -3.26022 m 0.597234,1.31159 h 2.227496 v 0.35959 h -2.227496 z m 3.839845,-1.30932 h 1.287142 c 0.475012,0 0.822661,0.14441 1.041545,0.43407 0.199835,0.24106 0.299616,0.52532 0.299616,0.85279 0,0.37438 -0.133036,0.69418 -0.400815,0.96167 0.09893,0.0844 0.148958,0.21547 0.148958,0.39314 v 0.61628 h -0.359881 v -0.64414 c 0,-0.0722 -0.04005,-0.12195 -0.119958,-0.14981 h -0.0081 c -0.143269,0.0677 -0.341968,0.10205 -0.595243,0.10205 h -1.375843 v 0.6919 h -0.358737 v -3.25113 c 0.196709,-0.005 0.344241,-0.007 0.440895,-0.007 m -0.08216,0.37324 v 1.81986 c 0.0024,0.01 0.0064,0.0145 0.0145,0.0145 h 1.367874 c 0.450846,0 0.746192,-0.17653 0.88747,-0.5276 0.05431,-0.13531 0.08102,-0.26863 0.08102,-0.40081 0,-0.29308 -0.112286,-0.53953 -0.33885,-0.73852 -0.145251,-0.12081 -0.3576,-0.18193 -0.636177,-0.18193 h -1.361339 c -0.0088,0.002 -0.0145,0.007 -0.0145,0.0145 z m 3.578891,-0.37551 h 3.082558 v 0.35874 h -2.722685 v 2.54161 h 2.722685 v 0.35987 h -3.082558 v -3.26022 m 0.59866,1.31159 h 2.227206 v 0.3596 h -2.227206 z"
           style="fill:#007dbb;fill-opacity:1;fill-rule:nonzero;stroke:none;stroke-width:0.28426406"
           id="path5110-1-0-1-2-4-0-9" />
      </g>
    </g>
  </g>
</svg>
